<svg width="28" height="28" viewBox="0 0 28 28" fill="none" xmlns="http://www.w3.org/2000/svg">
<path d="M19.2683 10.9064H24.5183V5.65643" stroke="black" stroke-linecap="round" stroke-linejoin="round"/>
<path d="M7.19409 7.1941C8.08786 6.30033 9.14891 5.59136 10.3167 5.10766C11.4844 4.62396 12.736 4.375 14 4.375C15.264 4.375 16.5156 4.62396 17.6833 5.10766C18.8511 5.59136 19.9121 6.30033 20.8059 7.1941L24.5182 10.9064" stroke="black" stroke-linecap="round" stroke-linejoin="round"/>
<path d="M8.73169 17.0936H3.48169V22.3436" stroke="black" stroke-linecap="round" stroke-linejoin="round"/>
<path d="M20.8058 20.8059C19.912 21.6996 18.851 22.4086 17.6832 22.8923C16.5155 23.376 15.2639 23.625 13.9999 23.625C12.7359 23.625 11.4843 23.376 10.3166 22.8923C9.14882 22.4086 8.08776 21.6996 7.194 20.8059L3.48169 17.0936" stroke="black" stroke-linecap="round" stroke-linejoin="round"/>
</svg>
