<svg width="28" height="28" viewBox="0 0 28 28" fill="none" xmlns="http://www.w3.org/2000/svg">
<path d="M14.0007 23.625C14.0007 23.625 3.06323 17.5 3.06323 10.0625C3.06346 8.74797 3.51895 7.47408 4.35227 6.45742C5.18559 5.44076 6.34529 4.74409 7.63422 4.48585C8.92315 4.22761 10.2617 4.42375 11.4224 5.04092C12.583 5.65809 13.4941 6.65818 14.0007 7.87118L14.0007 7.87119C14.5073 6.65819 15.4184 5.65809 16.5791 5.04092C17.7397 4.42376 19.0783 4.22762 20.3672 4.48585C21.6562 4.74409 22.8159 5.44076 23.6492 6.45742C24.4825 7.47407 24.938 8.74797 24.9382 10.0625C24.9382 17.5 14.0007 23.625 14.0007 23.625Z" stroke="black" stroke-linecap="round" stroke-linejoin="round"/>
</svg>
