<svg width="28" height="28" viewBox="0 0 28 28" fill="none" xmlns="http://www.w3.org/2000/svg">
<path d="M4.375 7H23.4517C23.5798 7 23.7064 7.02815 23.8225 7.08246C23.9386 7.13678 24.0413 7.21592 24.1234 7.31431C24.2055 7.4127 24.2651 7.52793 24.2977 7.65184C24.3304 7.77576 24.3355 7.90535 24.3126 8.03144L22.4046 18.5314C22.3679 18.7331 22.2617 18.9154 22.1044 19.0468C21.947 19.1781 21.7486 19.25 21.5437 19.25H7.34109C7.13626 19.25 6.93791 19.1781 6.78061 19.0469C6.62332 18.9157 6.51703 18.7335 6.48029 18.532L3.71048 3.34303C3.67374 3.14151 3.56745 2.95928 3.41016 2.82807C3.25286 2.69686 3.05451 2.625 2.84968 2.625H0.875" stroke="black" stroke-linecap="round" stroke-linejoin="round"/>
<path d="M7.875 24.9375C8.59987 24.9375 9.1875 24.3499 9.1875 23.625C9.1875 22.9001 8.59987 22.3125 7.875 22.3125C7.15013 22.3125 6.5625 22.9001 6.5625 23.625C6.5625 24.3499 7.15013 24.9375 7.875 24.9375Z" fill="black"/>
<path d="M21 24.9375C21.7249 24.9375 22.3125 24.3499 22.3125 23.625C22.3125 22.9001 21.7249 22.3125 21 22.3125C20.2751 22.3125 19.6875 22.9001 19.6875 23.625C19.6875 24.3499 20.2751 24.9375 21 24.9375Z" fill="black"/>
</svg>
