<svg width="80" height="42" viewBox="0 0 80 42" fill="none" xmlns="http://www.w3.org/2000/svg">
<path d="M16.44 7V17.11C16.44 19.81 15.82 22.16 14.58 24.16C13.34 26.14 11.5 27.62 9.06 28.6C6.64 27.64 4.8 26.19 3.54 24.25C2.28 22.31 1.65 20.02 1.65 17.38V7H4.53V17.02C4.53 19.02 4.86 20.7 5.52 22.06C6.18 23.42 7.37 24.57 9.09 25.51C10.77 24.55 11.94 23.39 12.6 22.03C13.28 20.67 13.62 19 13.62 17.02V7H16.44ZM31.9662 28H20.0262V12.01C20.0262 10.53 20.4962 9.34 21.4362 8.44C22.0762 7.84 22.7962 7.45 23.5962 7.27C24.3962 7.09 25.3762 7 26.5362 7H31.9662V9.64H26.1462C23.9462 9.64 22.8462 10.56 22.8462 12.4V15.82H29.7762V18.46H22.8462V25.36H31.9662V28ZM34.6605 7.36V7H37.4805V7.36C37.4805 11.36 38.8905 14.17 41.7105 15.79C43.2905 14.91 44.3905 13.77 45.0105 12.37C45.6505 10.97 45.9705 9.3 45.9705 7.36V7H48.8505V7.63C48.8505 11.79 47.3105 14.92 44.2305 17.02C47.3105 19.16 48.8505 22.29 48.8505 26.41V28H45.9705V26.68C45.9705 24.74 45.6505 23.07 45.0105 21.67C44.3905 20.27 43.2905 19.13 41.7105 18.25C38.8905 19.87 37.4805 22.68 37.4805 26.68V28H34.6605V26.68C34.6605 22.4 36.2005 19.18 39.2805 17.02C36.2005 14.9 34.6605 11.68 34.6605 7.36ZM64.1048 28H52.1648V12.01C52.1648 10.53 52.6348 9.34 53.5748 8.44C54.2148 7.84 54.9348 7.45 55.7348 7.27C56.5348 7.09 57.5148 7 58.6748 7H64.1048V9.64H58.2848C56.0848 9.64 54.9848 10.56 54.9848 12.4V15.82H61.9148V18.46H54.9848V25.36H64.1048V28ZM79.1592 25.36V28H74.7792C73.9592 28 73.3092 27.99 72.8292 27.97C72.3692 27.93 71.7892 27.81 71.0892 27.61C70.3892 27.39 69.7992 27.07 69.3192 26.65C68.5792 25.97 68.0992 25.16 67.8792 24.22C67.6592 23.26 67.5492 22.14 67.5492 20.86V7H70.3692V20.8C70.3692 21.96 70.4992 22.87 70.7592 23.53C71.2792 24.75 72.3692 25.36 74.0292 25.36H79.1592Z" fill="#4E4D4D"/>
<path d="M48.679 39C47.8297 39 47.1017 38.714 46.495 38.142C45.8883 37.57 45.585 36.8377 45.585 35.945C45.585 35.0437 45.8883 34.2897 46.495 33.683C47.1103 33.0677 47.8687 32.76 48.77 32.76H51.825V38.818C51.825 39.208 51.773 39.559 51.669 39.871C51.5737 40.183 51.435 40.4473 51.253 40.664C51.071 40.8807 50.9063 41.0497 50.759 41.171C50.6117 41.2923 50.434 41.418 50.226 41.548C49.6887 41.8253 49.0343 41.964 48.263 41.964H46.807V40.872H48.146C48.9087 40.872 49.4503 40.7767 49.771 40.586C50.3603 40.2567 50.655 39.7107 50.655 38.948V33.852H48.77C48.1547 33.852 47.665 34.0427 47.301 34.424C46.937 34.8053 46.755 35.3123 46.755 35.945C46.755 36.5517 46.9413 37.0327 47.314 37.388C47.6953 37.7347 48.1503 37.908 48.679 37.908C49.251 37.908 49.7537 37.752 50.187 37.44V38.61C49.719 38.87 49.2163 39 48.679 39ZM53.253 39V35.451C53.253 34.4543 53.4393 33.7653 53.812 33.384C53.994 33.1933 54.215 33.0503 54.475 32.955C54.735 32.8597 54.9603 32.8033 55.151 32.786C55.3503 32.7687 55.619 32.76 55.957 32.76H57.101V33.852H55.723C55.5496 33.852 55.4153 33.8563 55.32 33.865C55.2246 33.8737 55.112 33.904 54.982 33.956C54.852 34.008 54.7393 34.0903 54.644 34.203C54.4793 34.411 54.397 34.827 54.397 35.451V39H53.253ZM58.6571 33.579C59.2638 32.9463 60.0221 32.63 60.9321 32.63C61.3741 32.63 61.7858 32.7167 62.1671 32.89C62.5571 33.0547 62.8951 33.2843 63.1811 33.579C63.4758 33.8737 63.7054 34.2203 63.8701 34.619C64.0348 35.009 64.1171 35.4293 64.1171 35.88C64.1171 36.3307 64.0348 36.7553 63.8701 37.154C63.7141 37.544 63.4931 37.8863 63.2071 38.181C62.9211 38.4757 62.5831 38.7097 62.1931 38.883C61.8031 39.0477 61.3828 39.13 60.9321 39.13C60.4728 39.13 60.0481 39.0477 59.6581 38.883C59.2768 38.7097 58.9431 38.4757 58.6571 38.181C58.3711 37.8863 58.1458 37.544 57.9811 37.154C57.8251 36.7553 57.7471 36.3307 57.7471 35.88C57.7471 34.9613 58.0504 34.1943 58.6571 33.579ZM60.9321 33.722C60.3254 33.722 59.8358 33.9213 59.4631 34.32C59.0991 34.7187 58.9171 35.2387 58.9171 35.88C58.9171 36.5213 59.0991 37.0413 59.4631 37.44C59.8358 37.8387 60.3254 38.038 60.9321 38.038C61.5474 38.038 62.0371 37.8387 62.4011 37.44C62.7651 37.0327 62.9471 36.5127 62.9471 35.88C62.9471 35.2473 62.7651 34.7317 62.4011 34.333C62.0371 33.9257 61.5474 33.722 60.9321 33.722ZM70.6571 39H68.4081C67.4461 39 66.7571 38.857 66.3411 38.571C65.9685 38.3197 65.7301 38.0207 65.6261 37.674C65.5308 37.3187 65.4831 36.855 65.4831 36.283V32.76H66.6271V36.27C66.6271 36.426 66.6315 36.5603 66.6401 36.673C66.6488 36.777 66.6791 36.9157 66.7311 37.089C66.7831 37.2537 66.8568 37.3923 66.9521 37.505C67.0475 37.609 67.1861 37.7043 67.3681 37.791C67.5501 37.869 67.7711 37.908 68.0311 37.908H69.5131V32.76H70.6571V39ZM72.2878 41.964V35.88C72.2878 35.4293 72.3701 35.0047 72.5348 34.606C72.6995 34.2073 72.9248 33.865 73.2108 33.579C73.4968 33.2843 73.8348 33.0547 74.2248 32.89C74.6148 32.7167 75.0308 32.63 75.4728 32.63C75.9148 32.63 76.3265 32.7167 76.7078 32.89C77.0978 33.0547 77.4358 33.2843 77.7218 33.579C78.0165 33.8737 78.2461 34.2203 78.4108 34.619C78.5755 35.009 78.6578 35.4293 78.6578 35.88C78.6578 36.3307 78.5755 36.7553 78.4108 37.154C78.2548 37.544 78.0338 37.8863 77.7478 38.181C77.4618 38.4757 77.1238 38.7097 76.7338 38.883C76.3438 39.0477 75.9235 39.13 75.4728 39.13C74.9181 39.13 74.4025 39 73.9258 38.74V37.57C74.3505 37.882 74.8531 38.038 75.4338 38.038C75.7458 38.038 76.0275 37.986 76.2788 37.882C76.5388 37.7693 76.7555 37.6177 76.9288 37.427C77.1108 37.2363 77.2495 37.011 77.3448 36.751C77.4401 36.4823 77.4878 36.192 77.4878 35.88C77.4878 35.568 77.4401 35.282 77.3448 35.022C77.2495 34.7533 77.1151 34.5237 76.9418 34.333C76.7685 34.1423 76.5561 33.995 76.3048 33.891C76.0621 33.7783 75.7848 33.722 75.4728 33.722C75.1695 33.722 74.8921 33.774 74.6408 33.878C74.3981 33.982 74.1858 34.1293 74.0038 34.32C73.8305 34.5107 73.6961 34.7403 73.6008 35.009C73.5055 35.269 73.4578 35.5593 73.4578 35.88V41.964H72.2878Z" fill="#8E8E8E"/>
</svg>
