<svg width="50" height="34" viewBox="0 0 50 34" fill="none" xmlns="http://www.w3.org/2000/svg">
<rect x="0.5" y="0.5" width="49" height="33" rx="3.5" fill="white" stroke="#D9D9D9"/>
<path fill-rule="evenodd" clip-rule="evenodd" d="M11.9231 12.6549C12.5946 12.711 13.2661 12.3178 13.6858 11.8193C14.0984 11.3067 14.3712 10.6186 14.3013 9.9165C13.7067 9.94459 12.9723 10.3097 12.5526 10.8223C12.1679 11.2646 11.8392 11.9808 11.9231 12.6549ZM19.911 21.6985V10.7521H24.0029C26.1153 10.7521 27.5912 12.2125 27.5912 14.347C27.5912 16.4816 26.0873 17.9561 23.9469 17.9561H21.6037V21.6985H19.911ZM14.2943 12.7883C13.7027 12.7541 13.1629 12.9669 12.7269 13.1387C12.4463 13.2493 12.2087 13.343 12.028 13.343C11.8251 13.343 11.5777 13.2443 11.3 13.1335C10.936 12.9884 10.5198 12.8224 10.0835 12.8304C9.08323 12.8445 8.15294 13.4132 7.64233 14.3189C6.59314 16.1305 7.36954 18.8127 8.38377 20.2872C8.88039 21.0174 9.47494 21.8178 10.2583 21.7897C10.603 21.7767 10.8509 21.6711 11.1075 21.5618L11.1075 21.5618C11.4029 21.436 11.7097 21.3053 12.1889 21.3053C12.6514 21.3053 12.9448 21.4326 13.2265 21.5548C13.4943 21.671 13.7515 21.7825 14.1334 21.7757C14.9448 21.7617 15.4554 21.0455 15.952 20.3152C16.4879 19.5315 16.7234 18.7666 16.7592 18.6506L16.7634 18.6371C16.7625 18.6363 16.7559 18.6332 16.7442 18.6279C16.565 18.5455 15.1957 17.9162 15.1826 16.2288C15.1694 14.8124 16.2687 14.0948 16.4418 13.9818L16.4418 13.9818L16.4418 13.9817C16.4523 13.9749 16.4594 13.9703 16.4626 13.9679C15.7631 12.9287 14.672 12.8164 14.2943 12.7883ZM30.6829 21.7827C31.7461 21.7827 32.7323 21.242 33.18 20.3854H33.2149V21.6984H34.7817V16.2498C34.7817 14.67 33.5227 13.6519 31.5852 13.6519C29.7875 13.6519 28.4586 14.684 28.4096 16.1023H29.9344C30.0603 15.4283 30.6829 14.9859 31.5362 14.9859C32.5714 14.9859 33.152 15.4704 33.152 16.3621V16.966L31.0396 17.0924C29.0741 17.2117 28.0109 18.0192 28.0109 19.4235C28.0109 20.8418 29.1091 21.7827 30.6829 21.7827ZM31.1374 20.4838C30.2351 20.4838 29.6616 20.0484 29.6616 19.3814C29.6616 18.6933 30.2141 18.2931 31.2703 18.2299L33.1519 18.1105V18.7284C33.1519 19.7535 32.2846 20.4838 31.1374 20.4838ZM39.9787 22.1267C39.3002 24.0436 38.5238 24.6755 36.8731 24.6755C36.7472 24.6755 36.3275 24.6615 36.2296 24.6334V23.3204C36.3345 23.3344 36.5933 23.3485 36.7262 23.3485C37.4746 23.3485 37.8943 23.0325 38.1531 22.211L38.307 21.7265L35.4392 13.7572H37.2088L39.2023 20.2239H39.2373L41.2308 13.7572H42.9514L39.9787 22.1267ZM21.6036 12.1844H23.5551C25.024 12.1844 25.8633 12.9708 25.8633 14.354C25.8633 15.7372 25.024 16.5307 23.5481 16.5307H21.6036V12.1844Z" fill="black"/>
</svg>
