<svg width="32" height="32" viewBox="0 0 32 32" fill="none" xmlns="http://www.w3.org/2000/svg">
<path fill-rule="evenodd" clip-rule="evenodd" d="M16 0.103027C24.8366 0.103027 32 7.26393 32 16.0974C32 24.0806 26.149 30.6975 18.5 31.8974V20.7207H22.2281L22.9375 16.0974H22.8605L22.8681 16.048H18.5V13.0971C18.5 11.8322 19.1198 10.5993 21.1074 10.5993H23.125V6.66321C23.125 6.66321 23.101 6.65911 23.0559 6.65187V6.57809C23.0559 6.57809 21.2213 6.26452 19.4673 6.26452C15.8054 6.26452 13.4121 8.48713 13.4121 12.5109V16.048H9.34163V20.6889H9.4375V20.7207H13.4121V31.8834C5.80618 30.6467 0 24.05 0 16.0974C0 7.26393 7.16344 0.103027 16 0.103027Z" fill="white"/>
</svg>
