<svg width="49" height="34" viewBox="0 0 49 34" fill="none" xmlns="http://www.w3.org/2000/svg">
<rect x="0.5" y="0.5" width="48" height="33" rx="3.5" fill="white" stroke="#D9D9D9"/>
<path fill-rule="evenodd" clip-rule="evenodd" d="M23.1422 22.3238V18.0441H25.3251C26.2196 18.0441 26.9745 17.7409 27.59 17.1427L27.7377 16.9911C28.8619 15.7527 28.7881 13.8234 27.59 12.6777C26.9909 12.0711 26.1703 11.7426 25.3251 11.7594H21.821V22.3238H23.1422ZM23.1424 16.7468V13.0568H25.3584C25.8345 13.0568 26.2859 13.2422 26.6224 13.5791C27.3364 14.2868 27.3528 15.4662 26.6634 16.1992C26.3269 16.5614 25.8509 16.7636 25.3584 16.7468H23.1424ZM33.9006 15.66C33.3344 15.1293 32.563 14.8597 31.5864 14.8597C30.3309 14.8597 29.3872 15.3314 28.7635 16.2666L29.9288 17.0164C30.3555 16.3761 30.9382 16.056 31.6767 16.056C32.1445 16.056 32.5958 16.2329 32.9487 16.553C33.2933 16.8563 33.4903 17.2944 33.4903 17.7577V18.0694C32.9815 17.783 32.3414 17.6314 31.5536 17.6314C30.6345 17.6314 29.896 17.8504 29.3462 18.2969C28.7963 18.7434 28.5173 19.3331 28.5173 20.0829C28.5009 20.7653 28.7881 21.414 29.2969 21.8521C29.8139 22.3238 30.4704 22.5597 31.2418 22.5597C32.1527 22.5597 32.8748 22.1469 33.4246 21.3213H33.4821V22.3238H34.7458V17.8672C34.7458 16.9321 34.4668 16.1908 33.9006 15.66ZM30.3147 20.9927C30.0439 20.7905 29.8797 20.462 29.8797 20.1081C29.8797 19.7122 30.0603 19.3836 30.4132 19.1225C30.7744 18.8613 31.2258 18.7265 31.7592 18.7265C32.4979 18.7181 33.0724 18.8866 33.4828 19.2236C33.4828 19.7964 33.2612 20.2935 32.8262 20.7147C32.4323 21.1191 31.8988 21.3466 31.3407 21.3466C30.9713 21.355 30.6102 21.2286 30.3147 20.9927ZM37.5852 25.4999L42.0001 15.0956H40.564L38.5207 20.2851H38.4961L36.4035 15.0956H34.9674L37.8642 21.8605L36.2229 25.4999H37.5852Z" fill="#3C4043"/>
<path d="M18.5809 17.1172C18.5809 16.7044 18.548 16.2916 18.4824 15.8872H12.9104V18.2208H16.1026C15.9713 18.9706 15.5446 19.6446 14.9209 20.0658V21.5822H16.8247C17.9408 20.5291 18.5809 18.9706 18.5809 17.1172Z" fill="#4285F4"/>
<path d="M12.9106 23.0481C14.5026 23.0481 15.8484 22.509 16.825 21.5822L14.9211 20.0658C14.3877 20.4365 13.7066 20.6471 12.9106 20.6471C11.3678 20.6471 10.0631 19.5772 9.59531 18.145H7.63403V19.712C8.63519 21.7592 10.6785 23.0481 12.9106 23.0481Z" fill="#34A853"/>
<path d="M9.59562 18.145C9.34939 17.3952 9.34939 16.578 9.59562 15.8198V14.2612H7.63403C6.78866 15.9714 6.78866 17.9933 7.63403 19.7035L9.59562 18.145Z" fill="#FBBC04"/>
<path d="M12.9106 13.3179C13.7558 13.301 14.5683 13.6296 15.1755 14.2277L16.866 12.4923C15.791 11.4645 14.3795 10.9 12.9106 10.9169C10.6785 10.9169 8.63519 12.2143 7.63403 14.2614L9.59531 15.8284C10.0631 14.3878 11.3678 13.3179 12.9106 13.3179Z" fill="#EA4335"/>
</svg>
