<svg width="32" height="32" viewBox="0 0 32 32" fill="none" xmlns="http://www.w3.org/2000/svg">
<path fill-rule="evenodd" clip-rule="evenodd" d="M31.9038 9.61396C31.8259 7.96519 31.5554 6.83922 31.1599 5.85412C30.7583 4.82056 30.1284 3.88439 29.3145 3.11058C28.5154 2.32259 27.5481 1.71258 26.4805 1.32355C25.4626 0.940897 24.2998 0.679259 22.5967 0.604336C20.8904 0.528705 20.3452 0.510742 16 0.510742C11.6548 0.510742 11.1096 0.528705 9.40332 0.603864C7.7002 0.679259 6.53735 0.941134 5.51953 1.32402C4.4519 1.71281 3.48486 2.32259 2.68555 3.11058C1.87158 3.88415 1.24146 4.82033 0.8396 5.85388C0.444336 6.83922 0.174072 7.96519 0.0966797 9.61372C0.0185547 11.2658 0 11.7933 0 15.9999C0 20.2066 0.0185547 20.7344 0.0966797 22.3863C0.174316 24.0348 0.444824 25.1608 0.840332 26.1461C1.24194 27.1794 1.87183 28.1158 2.68579 28.8894C3.48486 29.6774 4.45215 30.2872 5.51978 30.676C6.53735 31.0591 7.70044 31.3207 9.40356 31.3961C11.1101 31.4715 11.655 31.4892 16.0002 31.4892C20.3455 31.4892 20.8906 31.4715 22.5969 31.3961C24.3 31.3207 25.4629 31.0591 26.4807 30.676C28.6299 29.8714 30.3289 28.2267 31.1599 26.1461C31.5557 25.1608 31.8259 24.0348 31.9038 22.3863C31.9814 20.7342 32 20.2066 32 16.0001C32 11.7933 31.9814 11.2658 31.9038 9.61396ZM29.0237 22.2593C28.9526 23.7696 28.6919 24.5897 28.4729 25.1355C27.9346 26.4864 26.8318 27.554 25.4363 28.0752C24.8726 28.2872 24.0254 28.5396 22.4653 28.6084C20.7786 28.6831 20.2725 28.6987 16 28.6987C11.7273 28.6987 11.2214 28.6831 9.53442 28.6084C7.97461 28.5396 7.12744 28.2872 6.56348 28.0752C5.86865 27.8268 5.23999 27.4309 4.72388 26.9164C4.19238 26.4167 3.78345 25.8083 3.52686 25.1355C3.30786 24.5897 3.04712 23.7696 2.97607 22.2593C2.89917 20.6262 2.88281 20.1362 2.88281 16.0003C2.88281 11.8642 2.89917 11.3745 2.97607 9.74111C3.04736 8.23084 3.30786 7.41071 3.52686 6.86498C3.78345 6.1921 4.19263 5.5835 4.72388 5.08386C5.23999 4.56933 5.86865 4.17344 6.56372 3.92528C7.12744 3.71303 7.97461 3.46085 9.53467 3.39184C11.2217 3.31739 11.7278 3.30155 16 3.30155C20.272 3.30155 20.7781 3.31739 22.4653 3.39207C24.0254 3.46085 24.8723 3.71327 25.4363 3.92528C26.1311 4.17368 26.7598 4.56956 27.2759 5.08386C27.8074 5.5835 28.2163 6.1921 28.4727 6.86498C28.6919 7.41071 28.9526 8.23084 29.0237 9.74111C29.1006 11.3743 29.1169 11.8642 29.1169 16.0001C29.1169 20.1362 29.1008 20.6259 29.0237 22.2593ZM15.9998 8.04602C11.4622 8.04602 7.78369 11.6073 7.78369 16.0001C7.78369 20.3929 11.4622 23.954 15.9998 23.954C20.5376 23.954 24.2161 20.3929 24.2161 16.0001C24.2161 11.6073 20.5376 8.04602 15.9998 8.04602ZM15.9998 21.1631C13.0544 21.1629 10.6665 18.8514 10.6667 15.9999C10.6667 13.1486 13.0544 10.8368 16 10.8368C18.9456 10.8371 21.3333 13.1486 21.3333 15.9999C21.3333 18.8514 18.9453 21.1631 15.9998 21.1631ZM24.5408 9.59056C25.6011 9.59056 26.4607 8.75837 26.4607 7.73191C26.4607 6.70521 25.6011 5.87303 24.5408 5.87303C23.4802 5.87303 22.6206 6.70521 22.6206 7.73191C22.6206 8.75837 23.4802 9.59056 24.5408 9.59056Z" fill="white"/>
</svg>
