<svg width="50" height="34" viewBox="0 0 50 34" fill="none" xmlns="http://www.w3.org/2000/svg">
<rect x="0.5" y="0.5" width="49" height="33" rx="3.5" fill="white" stroke="#D9D9D9"/>
<path fill-rule="evenodd" clip-rule="evenodd" d="M25.3571 24.3058C23.6548 25.7626 21.4467 26.642 19.0339 26.642C13.6501 26.642 9.28564 22.2636 9.28564 16.8627C9.28564 11.4618 13.6501 7.0835 19.0339 7.0835C21.4467 7.0835 23.6548 7.9629 25.3571 9.41963C27.0593 7.9629 29.2674 7.0835 31.6803 7.0835C37.0641 7.0835 41.4285 11.4618 41.4285 16.8627C41.4285 22.2636 37.0641 26.642 31.6803 26.642C29.2674 26.642 27.0593 25.7626 25.3571 24.3058Z" fill="#ED0006"/>
<path fill-rule="evenodd" clip-rule="evenodd" d="M25.3572 24.3058C27.4532 22.5121 28.7822 19.8431 28.7822 16.8627C28.7822 13.8823 27.4532 11.2133 25.3572 9.41963C27.0594 7.9629 29.2675 7.0835 31.6804 7.0835C37.0642 7.0835 41.4286 11.4618 41.4286 16.8627C41.4286 22.2636 37.0642 26.642 31.6804 26.642C29.2675 26.642 27.0594 25.7626 25.3572 24.3058Z" fill="#F9A000"/>
<path fill-rule="evenodd" clip-rule="evenodd" d="M25.3571 9.41943C27.4531 11.2131 28.7822 13.8821 28.7822 16.8625C28.7822 19.8429 27.4531 22.5119 25.3571 24.3056C23.2612 22.5119 21.9321 19.8429 21.9321 16.8625C21.9321 13.8821 23.2612 11.2131 25.3571 9.41943Z" fill="#FF5E00"/>
</svg>
