<svg width="50" height="34" viewBox="0 0 50 34" fill="none" xmlns="http://www.w3.org/2000/svg">
<rect x="0.5" y="0.5" width="49" height="33" rx="3.5" fill="white" stroke="#D9D9D9"/>
<path fill-rule="evenodd" clip-rule="evenodd" d="M15.1788 23.0324H12.1498L9.8784 14.439C9.77059 14.0437 9.54168 13.6943 9.20495 13.5296C8.36462 13.1157 7.43864 12.7863 6.42847 12.6201V12.2893H11.308C11.9814 12.2893 12.4865 12.7863 12.5707 13.3634L13.7492 19.5621L16.7768 12.2893H19.7216L15.1788 23.0324ZM21.4053 23.0324H18.5446L20.9002 12.2893H23.7609L21.4053 23.0324ZM27.4619 15.2654C27.546 14.6868 28.0511 14.356 28.6404 14.356C29.5664 14.2729 30.5751 14.439 31.4169 14.8515L31.922 12.5385C31.0801 12.2076 30.1542 12.0415 29.3138 12.0415C26.5373 12.0415 24.517 13.5296 24.517 15.5948C24.517 17.166 25.9481 17.9909 26.9582 18.4879C28.0511 18.9835 28.472 19.3143 28.3878 19.8099C28.3878 20.5532 27.546 20.884 26.7057 20.884C25.6955 20.884 24.6854 20.6363 23.7609 20.2223L23.2558 22.5368C24.2659 22.9493 25.3588 23.1154 26.369 23.1154C29.4822 23.1971 31.4169 21.7104 31.4169 19.479C31.4169 16.669 27.4619 16.5043 27.4619 15.2654ZM41.4285 23.0324L39.1571 12.2893H36.7173C36.2122 12.2893 35.7071 12.6201 35.5388 13.1157L31.3327 23.0324H34.2775L34.8653 21.4626H38.4836L38.8203 23.0324H41.4285ZM37.1382 15.1824L37.9785 19.2313H35.6229L37.1382 15.1824Z" fill="#172B85"/>
</svg>
